{"title":"Sahib Bahadur 1977 1CD Dvdrip X264 AAC [RRG DBB][DADA]","uid":8221237,"size":1040510660,"categoryP":"video","categoryS":"movies","magnet":"?xt=urn:btih:4ef6525ef521bfb03d93b682ef5318a641d19a34&amp;dn=+Sahib+Bahadur+1977+1CD+Dvdrip+X264+AAC+%5BRRG+DBB%5D%5BDADA%5D&amp;tr=udp%3A%2F%2Ftracker.openbittorrent.com%3A80&amp;tr=udp%3A%2F%2Fopen.demonii.com%3A1337&amp;tr=udp%3A%2F%2Ftracker.coppersurfer.tk%3A6969&amp;tr=udp%3A%2F%2Fexodus.desync.com%3A6969","seeders":1,"leechers":1,"uploader":"brego45","files":1,"time":1362441912,"description":"\n\nCover -\n\n\n\n    &lt;a href=&quot;\thttp://desibbrg.org/images/20443333614275977737.jpg&quot; rel=&quot;nofollow&quot; target=&quot;_NEW&quot;&gt;\thttp://desibbrg.org/images/20443333614275977737.jpg&lt;/a&gt;\n\nScreens -\n\n &lt;a href=&quot;\nhttp://desibbrg.net/imghost/show.php?img=430025_Sahib.Bahadur.1977.1CD.Dvdrip.X264.AAC.RRG.DADA.DBBIANS.Comthumbs.jpg.html&quot; rel=&quot;nofollow&quot; target=&quot;_NEW&quot;&gt;\nhttp://desibbrg.net/imghost/show.php?img=430025_Sahib.Bahadur.1977.1CD.Dvdrip.X264.AAC.RRG.DADA.DBBIANS.Comthumbs.jpg.html&lt;/a&gt;\n\n\nInfo -\n\n\nGeneral\n\nFormat                                   : MP4 Video\nFile size                                : 992 MiB\nDuration                                 : 2h 30mn\nOverall bit rate                         : 922 Kbps\n\n\nVideo\nFormat                                   : AVC\nFormat/Info                              : Advanced Video Codec\nFormat profile                           : &lt;a class=&quot;__cf_email__&quot; href=&quot;/cdn-cgi/l/email-protection&quot; data-cfemail=&quot;bdf0dcd4d3fdf18e938d&quot;&gt;[email&amp;#160;protected]&lt;/a&gt;&lt;script cf-hash='f9e31' type=&quot;text/javascript&quot;&gt;\n/* &lt;![CDATA[ */!function(){try{var t=&quot;currentScript&quot;in document?document.currentScript:function(){for(var t=document.getElementsByTagName(&quot;script&quot;),e=t.length;e--;)if(t[e].getAttribute(&quot;cf-hash&quot;))return t[e]}();if(t&amp;&amp;t.previousSibling){var e,r,n,i,c=t.previousSibling,a=c.getAttribute(&quot;data-cfemail&quot;);if(a){for(e=&quot;&quot;,r=parseInt(a.substr(0,2),16),n=2;a.length-n;n+=2)i=parseInt(a.substr(n,2),16)^r,e+=String.fromCharCode(i);e=document.createTextNode(e),c.parentNode.replaceChild(e,c)}}}catch(u){}}();/* ]]&gt; */&lt;/script&gt;\nFormat settings, CABAC                   : Yes\nFormat settings, ReFrames                : 3 frames\nFormat settings, GOP                     : M=1, N=25\nCodec ID                                 : 7\nDuration                                 : 2h 30mn\nBit rate                                 : 785 Kbps\nWidth                                    : 640 pixels\nHeight                                   : 480 pixels\nDisplay aspect ratio                     : 4:3\nFrame rate mode                          : Constant\nFrame rate                               : 25.000 fps\nColor space                              : YUV\nChroma subsampling                       : 4:2:0\nBit depth                                : 8 bits\nScan type                                : Progressive\nBits/(Pixel*Frame)                       : 0.102\nStream size                              : 845 MiB (85%)\n\nAudio\nFormat                                   : AAC\nFormat/Info                              : Advanced Audio Codec\nFormat profile                           : LC\nCodec ID                                 : 10\nDuration                                 : 2h 30mn\nBit rate                                 : 129 Kbps\nChannel(s)                               : 2 channels\nChannel positions                        : Front: L R\nSampling rate                            : 44.1 KHz\nCompression mode                         : Lossy\nStream size                              : 138 MiB (14%)\n &lt;a href=&quot;\nhttp://www.imdb.com/title/tt0155135/&quot; rel=&quot;nofollow&quot; target=&quot;_NEW&quot;&gt;\nhttp://www.imdb.com/title/tt0155135/&lt;/a&gt;\n\nAbout this movie\n\n    Genres:\nIndian Cinema, Classics, Drama\n    Language:\nHindi\n    Running time:\n2:30:30\n    Released:\nJan 1, 1977\n\nCast &amp; Crew\nCast\n\n    Dev Anand\n    Jalal Agha\n    Ajit\n    Asrani\n    Master Bhagwan\n    Anil Dhawan\n    Dhumal\n    Manorama\n    I.S. Johar\n    Bharat Kapoor\n\nDirectors\n\n    Chetan Anand\n\nProducers\n\n    Chetan Anand\n\n\n\n\nA small town in the Indian valley is run by a pack of corrupt officials who wont work unless they are bribed. The pack of corrupt officials include, Deputy collector, Hare Murari along with Police Superintendent, Pasupathi; a doctor, a forest officer, a principal, a Judge and Professor Rampyare. When they learn that a senior officer is coming on a secret inspection to their town, they assume it to be Prem Pratap (Dev Anand). In reality Prem Pratap happens to be an actor with a traveling drama company. Subsequently, Hare Murari and the corrupt officials conclude that Prem Pratap is a Government Official who has come incognito to investigate and expose them. Their fears worsen when they find out that Prem Pratap has been speaking to the President of India. Now the corrupt pack comes together to try and portray themselves as honest and law-abiding citizens. Can the corrupt officials be successful in pulling off the stunt? How will the comical mayhem play out to change the lives of the people in the town? ","torrent":{"xt":"urn:btih:4ef6525ef521bfb03d93b682ef5318a641d19a34","amp;dn":"+Sahib+Bahadur+1977+1CD+Dvdrip+X264+AAC+%5BRRG+DBB%5D%5BDADA%5D","amp;tr":["udp%3A%2F%2Ftracker.openbittorrent.com%3A80","udp%3A%2F%2Fopen.demonii.com%3A1337","udp%3A%2F%2Ftracker.coppersurfer.tk%3A6969","udp%3A%2F%2Fexodus.desync.com%3A6969"],"infoHash":"4ef6525ef521bfb03d93b682ef5318a641d19a34","infoHashBuffer":{"type":"Buffer","data":[78,246,82,94,245,33,191,176,61,147,182,130,239,83,24,166,65,209,154,52]},"announce":[],"urlList":[]}}